<svg width="48" height="48" viewBox="0 0 48 48" fill="none" xmlns="http://www.w3.org/2000/svg">
<path d="M41.25 5.25H6.75C5.92031 5.25 5.25 5.92031 5.25 6.75V41.25C5.25 42.0797 5.92031 42.75 6.75 42.75H41.25C42.0797 42.75 42.75 42.0797 42.75 41.25V6.75C42.75 5.92031 42.0797 5.25 41.25 5.25ZM24.0516 24.2859L15.0516 31.8328C14.8078 32.0391 14.4375 31.8656 14.4375 31.5469V28.6078C14.4375 28.5 14.4891 28.3922 14.5734 28.3219L19.7203 24L14.5734 19.6781C14.5304 19.6441 14.4957 19.6006 14.4721 19.551C14.4485 19.5014 14.4367 19.4471 14.4375 19.3922V16.4531C14.4375 16.1344 14.8078 15.9609 15.0516 16.1672L24.0516 23.7094C24.2344 23.8594 24.2344 24.1359 24.0516 24.2859V24.2859ZM33.5625 31.5469C33.5625 31.7531 33.4031 31.9219 33.2109 31.9219H24.5391C24.3469 31.9219 24.1875 31.7531 24.1875 31.5469V29.2969C24.1875 29.0906 24.3469 28.9219 24.5391 28.9219H33.2109C33.4031 28.9219 33.5625 29.0906 33.5625 29.2969V31.5469Z" fill="#202020"/>
</svg>
